<svg xmlns="http://www.w3.org/2000/svg" viewBox="0 0 495.06 60.65"><defs><style>.cls-1{fill:#1d1d1b;}</style></defs><g id="Capa_2" data-name="Capa 2"><g id="Capa_1-2" data-name="Capa 1"><path class="cls-1" d="M41.45,60.32v-28L31.28,52.67H25.41L15.31,32.34v28H4.49V13.46H16.24L28.38,38,40.52,13.46H52.27V60.32Z" transform="translate(-4.49 0)"/><path class="cls-1" d="M61.25,60.32V13.46H72.07V60.32Z" transform="translate(-4.49 0)"/><path class="cls-1" d="M100.85,60.65a21.5,21.5,0,0,1-8.62-1.75A22.26,22.26,0,0,1,85.07,54a23.17,23.17,0,0,1-4.91-7.59,25.52,25.52,0,0,1-1.82-9.84,22.72,22.72,0,0,1,1.82-9.07,23.87,23.87,0,0,1,5-7.49A22.78,22.78,0,0,1,92.56,15a23.25,23.25,0,0,1,9.21-1.82,23,23,0,0,1,11.42,2.78,18,18,0,0,1,7.39,7.45l-8.12,6.08a11.41,11.41,0,0,0-4.58-4.92,12.69,12.69,0,0,0-6.51-1.75,10.79,10.79,0,0,0-4.85,1.09,11.23,11.23,0,0,0-3.79,3,14.8,14.8,0,0,0-2.48,4.53A16.89,16.89,0,0,0,89.36,37a16.43,16.43,0,0,0,.93,5.61A13.47,13.47,0,0,0,92.86,47a11.65,11.65,0,0,0,8.91,4,13.33,13.33,0,0,0,6.47-1.69,18.65,18.65,0,0,0,5.67-4.91V55A17.9,17.9,0,0,1,100.85,60.65Zm12.34-17h-9V35.84h18V60.32h-9Z" transform="translate(-4.49 0)"/><path class="cls-1" d="M149.49,60.65a22.22,22.22,0,0,1-9.57-1.87,17.08,17.08,0,0,1-6.44-5.18,22.15,22.15,0,0,1-3.63-7.48,32.66,32.66,0,0,1-1.15-8.73V13.46h10.82V37.38a24.4,24.4,0,0,0,.53,5.14,13.65,13.65,0,0,0,1.68,4.31,8.82,8.82,0,0,0,3.07,3A8.94,8.94,0,0,0,149.49,51a9.16,9.16,0,0,0,4.68-1.12,8.45,8.45,0,0,0,3.07-3.1A15.89,15.89,0,0,0,159,42.39a22.56,22.56,0,0,0,.56-5V13.46h10.76V37.39a32.37,32.37,0,0,1-1.22,9.06,22.24,22.24,0,0,1-3.73,7.42,16.75,16.75,0,0,1-6.44,5A22.59,22.59,0,0,1,149.49,60.65Z" transform="translate(-4.49 0)"/><path class="cls-1" d="M211.59,50.82v9.5H178.66V13.46H211V23H189.48v9.11H208v8.77H189.48v10Z" transform="translate(-4.49 0)"/><path class="cls-1" d="M218.19,60.32V13.46H229V50.82h22.7v9.5Z" transform="translate(-4.49 0)"/><path class="cls-1" d="M290.07,60.65a21.5,21.5,0,0,1-8.62-1.75A22.26,22.26,0,0,1,274.29,54a23.17,23.17,0,0,1-4.91-7.59,25.7,25.7,0,0,1-1.82-9.84,22.89,22.89,0,0,1,1.82-9.07,23.87,23.87,0,0,1,5-7.49A22.78,22.78,0,0,1,281.78,15,23.25,23.25,0,0,1,291,13.13a23,23,0,0,1,11.42,2.78,18,18,0,0,1,7.39,7.45l-8.12,6.08a11.41,11.41,0,0,0-4.58-4.92,12.69,12.69,0,0,0-6.51-1.75,10.79,10.79,0,0,0-4.85,1.09,11.23,11.23,0,0,0-3.79,3,14.8,14.8,0,0,0-2.48,4.53,16.89,16.89,0,0,0-.89,5.54,16.43,16.43,0,0,0,.93,5.61A13.47,13.47,0,0,0,282.08,47,11.65,11.65,0,0,0,291,51a13.33,13.33,0,0,0,6.47-1.69,18.65,18.65,0,0,0,5.67-4.91V55A17.9,17.9,0,0,1,290.07,60.65Zm12.34-17h-9V35.84h18V60.32h-9Z" transform="translate(-4.49 0)"/><path class="cls-1" d="M339,60.65a21.78,21.78,0,0,1-9.41-2,23.3,23.3,0,0,1-7.36-5.41,24.47,24.47,0,0,1-4.75-7.66,24.16,24.16,0,0,1-1.65-8.81,23,23,0,0,1,1.75-8.91,25,25,0,0,1,4.88-7.56,22.8,22.8,0,0,1,16.8-7.16,21.76,21.76,0,0,1,9.47,2,22.74,22.74,0,0,1,7.33,5.44,25.13,25.13,0,0,1,4.72,7.69A23.84,23.84,0,0,1,362.47,37a23.37,23.37,0,0,1-1.72,8.91,24,24,0,0,1-12.31,12.84A22.46,22.46,0,0,1,339,60.65ZM326.83,36.89a16.85,16.85,0,0,0,.82,5.25A14.47,14.47,0,0,0,330,46.66,11.17,11.17,0,0,0,339.24,51a10.93,10.93,0,0,0,9.17-4.52,15.4,15.4,0,0,0,2.28-4.59,17.88,17.88,0,0,0,.76-5.15,16.57,16.57,0,0,0-.83-5.21A15.12,15.12,0,0,0,348.25,27a10.75,10.75,0,0,0-3.87-3.14,12.79,12.79,0,0,0-10.62.07,10.91,10.91,0,0,0-3.83,3.23,15.58,15.58,0,0,0-2.31,4.52A16.85,16.85,0,0,0,326.83,36.89Zm15.84-26.4-6.8-1.91L339.43,0H349Z" transform="translate(-4.49 0)"/><path class="cls-1" d="M405.7,60.32v-28L395.53,52.67h-5.87l-10.1-20.33v28H368.74V13.46h11.75L392.63,38l12.14-24.49h11.75V60.32Z" transform="translate(-4.49 0)"/><path class="cls-1" d="M458.43,50.82v9.5H425.5V13.46h32.34V23H436.32v9.11H454.8v8.77H436.32v10Z" transform="translate(-4.49 0)"/><path class="cls-1" d="M462.39,52.21,486.28,23h-23V13.46h36v8.12L476.51,50.82h23v9.5H462.39Z" transform="translate(-4.49 0)"/></g></g></svg>